<?xml version="1.0" encoding="utf-8"?>
<!-- Generator: Adobe Illustrator 23.0.4, SVG Export Plug-In . SVG Version: 6.00 Build 0)  -->
<svg version="1.1" id="Layer_1" xmlns="http://www.w3.org/2000/svg" xmlns:xlink="http://www.w3.org/1999/xlink" x="0px" y="0px"
	 viewBox="0 0 728.63 278.68" style="enable-background:new 0 0 728.63 278.68;" xml:space="preserve">
<style type="text/css">
	.st0{fill:#878787;}
	.st1{fill:#EF7D00;}
	.st2{opacity:0.5;fill:url(#SVGID_1_);}
	.st3{opacity:0.3;fill:url(#SVGID_2_);}
	.st4{opacity:0.3;fill:url(#SVGID_3_);}
	.st5{fill:url(#SVGID_4_);}
</style>
<g>
	<path class="st0" d="M45.18,59.97c7.08,0,13.26,0.99,18.54,2.97c5.28,1.98,9.66,4.5,13.14,7.56c3.48,3.06,6.12,6.45,7.92,10.17
		c1.8,3.72,2.76,7.32,2.88,10.8c0,0.96-0.3,1.8-0.9,2.52c-0.6,0.72-1.56,1.08-2.88,1.08h-3.6c-0.6,0-1.35-0.24-2.25-0.72
		c-0.9-0.48-1.47-1.44-1.71-2.88c-0.72-6-3.87-10.95-9.45-14.85c-5.58-3.9-12.81-5.85-21.69-5.85c-4.44,0-8.52,0.42-12.24,1.26
		c-3.72,0.84-6.9,2.16-9.54,3.96c-2.64,1.8-4.71,4.05-6.21,6.75c-1.5,2.7-2.25,5.91-2.25,9.63c0,3.6,0.69,6.66,2.07,9.18
		c1.38,2.52,3.57,4.8,6.57,6.84c3,2.04,6.78,3.96,11.34,5.76c4.56,1.8,10.08,3.72,16.56,5.76c6.72,2.16,12.57,4.29,17.55,6.39
		c4.98,2.1,9.12,4.47,12.42,7.11c3.3,2.64,5.76,5.7,7.38,9.18c1.62,3.48,2.43,7.68,2.43,12.6c0,10.92-4.02,19.38-12.06,25.38
		c-8.04,6-19.08,9-33.12,9c-7.32,0-13.8-0.93-19.44-2.79c-5.64-1.86-10.41-4.29-14.31-7.29c-3.9-3-6.9-6.45-9-10.35
		c-2.1-3.9-3.21-7.89-3.33-11.97c0-0.96,0.36-1.8,1.08-2.52c0.72-0.72,1.62-1.08,2.7-1.08h3.6c1.2,0,2.1,0.36,2.7,1.08
		c0.6,0.72,1.02,1.56,1.26,2.52c0.36,2.52,1.26,5.07,2.7,7.65c1.44,2.58,3.57,4.89,6.39,6.93c2.82,2.04,6.33,3.72,10.53,5.04
		c4.2,1.32,9.24,1.98,15.12,1.98c11.76,0,20.34-2.13,25.74-6.39c5.4-4.26,8.1-9.99,8.1-17.19c0-3.6-0.78-6.63-2.34-9.09
		c-1.56-2.46-3.96-4.68-7.2-6.66c-3.24-1.98-7.32-3.87-12.24-5.67c-4.92-1.8-10.74-3.78-17.46-5.94
		c-6.48-2.04-12.03-4.11-16.65-6.21c-4.62-2.1-8.46-4.5-11.52-7.2c-3.06-2.7-5.31-5.82-6.75-9.36c-1.44-3.54-2.16-7.77-2.16-12.69
		c0-4.56,0.93-8.82,2.79-12.78c1.86-3.96,4.53-7.38,8.01-10.26c3.48-2.88,7.8-5.16,12.96-6.84C32.52,60.81,38.46,59.97,45.18,59.97z
		"/>
	<path class="st0" d="M103.23,133.77c0.48-6.12,1.71-11.73,3.69-16.83c1.98-5.1,4.62-9.45,7.92-13.05c3.3-3.6,7.29-6.42,11.97-8.46
		c4.68-2.04,9.96-3.06,15.84-3.06c12.6,0,22.38,4.11,29.34,12.33c6.96,8.22,10.44,19.59,10.44,34.11v2.7c0,1.2-0.39,2.16-1.17,2.88
		c-0.78,0.72-1.77,1.08-2.97,1.08h-64.08v1.8c0.12,4.08,0.87,8.04,2.25,11.88c1.38,3.84,3.27,7.23,5.67,10.17
		c2.4,2.94,5.34,5.31,8.82,7.11c3.48,1.8,7.38,2.7,11.7,2.7c3.84,0,7.2-0.48,10.08-1.44c2.88-0.96,5.34-2.07,7.38-3.33
		c2.04-1.26,3.69-2.55,4.95-3.87c1.26-1.32,2.13-2.34,2.61-3.06c1.08-1.56,1.92-2.49,2.52-2.79c0.6-0.3,1.56-0.45,2.88-0.45h2.88
		c1.08,0,2.01,0.33,2.79,0.99c0.78,0.66,1.11,1.53,0.99,2.61c-0.12,1.68-1.05,3.78-2.79,6.3c-1.74,2.52-4.2,4.92-7.38,7.2
		c-3.18,2.28-7.05,4.23-11.61,5.85c-4.56,1.62-9.66,2.43-15.3,2.43c-5.76,0-10.98-0.99-15.66-2.97c-4.68-1.98-8.7-4.8-12.06-8.46
		c-3.36-3.66-6.03-8.04-8.01-13.14c-1.98-5.1-3.21-10.71-3.69-16.83c-0.12-1.8-0.18-4.2-0.18-7.2
		C103.05,137.97,103.11,135.57,103.23,133.77z M114.21,135.39h57.24v-0.72c0-4.44-0.66-8.61-1.98-12.51
		c-1.32-3.9-3.21-7.29-5.67-10.17c-2.46-2.88-5.49-5.13-9.09-6.75c-3.6-1.62-7.62-2.43-12.06-2.43c-4.56,0-8.58,0.81-12.06,2.43
		c-3.48,1.62-6.45,3.87-8.91,6.75c-2.46,2.88-4.32,6.27-5.58,10.17c-1.26,3.9-1.89,8.07-1.89,12.51V135.39z"/>
	<path class="st0" d="M233.33,94.17h6.66c2.64,0,3.96,1.32,3.96,3.96v2.52c0,2.64-1.32,3.96-3.96,3.96h-7.74
		c-7.2,0-12.9,2.1-17.1,6.3c-4.2,4.2-6.3,9.9-6.3,17.1v55.8c0,1.2-0.39,2.16-1.17,2.88c-0.78,0.72-1.77,1.08-2.97,1.08h-2.88
		c-2.64,0-3.96-1.32-3.96-3.96v-85.5c0-1.2,0.36-2.19,1.08-2.97c0.72-0.78,1.68-1.17,2.88-1.17h2.88c1.2,0,2.19,0.39,2.97,1.17
		c0.78,0.78,1.17,1.77,1.17,2.97v8.28C213.17,98.31,221.33,94.17,233.33,94.17z"/>
	<path class="st0" d="M290.88,186.51c-1.02-0.84-1.83-1.92-2.43-3.24l-33.12-83.52c-0.24-0.72-0.36-1.38-0.36-1.98
		c0-0.96,0.36-1.8,1.08-2.52c0.72-0.72,1.56-1.08,2.52-1.08h3.78c1.2,0,2.1,0.33,2.7,0.99c0.6,0.66,1.02,1.23,1.26,1.71l30.42,77.76
		l30.42-77.76c0.24-0.48,0.66-1.05,1.26-1.71c0.6-0.66,1.5-0.99,2.7-0.99h3.78c0.96,0,1.8,0.36,2.52,1.08
		c0.72,0.72,1.08,1.56,1.08,2.52c0,0.6-0.12,1.26-0.36,1.98l-33.12,83.52c-0.6,1.32-1.41,2.4-2.43,3.24
		c-1.02,0.84-2.49,1.26-4.41,1.26h-2.88C293.37,187.77,291.89,187.35,290.88,186.51z"/>
	<path class="st0" d="M344.32,133.77c0.48-6.12,1.71-11.73,3.69-16.83c1.98-5.1,4.62-9.45,7.92-13.05c3.3-3.6,7.29-6.42,11.97-8.46
		c4.68-2.04,9.96-3.06,15.84-3.06c12.6,0,22.38,4.11,29.34,12.33c6.96,8.22,10.44,19.59,10.44,34.11v2.7c0,1.2-0.39,2.16-1.17,2.88
		c-0.78,0.72-1.77,1.08-2.97,1.08H355.3v1.8c0.12,4.08,0.87,8.04,2.25,11.88c1.38,3.84,3.27,7.23,5.67,10.17
		c2.4,2.94,5.34,5.31,8.82,7.11c3.48,1.8,7.38,2.7,11.7,2.7c3.84,0,7.2-0.48,10.08-1.44c2.88-0.96,5.34-2.07,7.38-3.33
		c2.04-1.26,3.69-2.55,4.95-3.87c1.26-1.32,2.13-2.34,2.61-3.06c1.08-1.56,1.92-2.49,2.52-2.79c0.6-0.3,1.56-0.45,2.88-0.45h2.88
		c1.08,0,2.01,0.33,2.79,0.99c0.78,0.66,1.11,1.53,0.99,2.61c-0.12,1.68-1.05,3.78-2.79,6.3c-1.74,2.52-4.2,4.92-7.38,7.2
		c-3.18,2.28-7.05,4.23-11.61,5.85c-4.56,1.62-9.66,2.43-15.3,2.43c-5.76,0-10.98-0.99-15.66-2.97c-4.68-1.98-8.7-4.8-12.06-8.46
		c-3.36-3.66-6.03-8.04-8.01-13.14c-1.98-5.1-3.21-10.71-3.69-16.83c-0.12-1.8-0.18-4.2-0.18-7.2
		C344.14,137.97,344.2,135.57,344.32,133.77z M355.3,135.39h57.24v-0.72c0-4.44-0.66-8.61-1.98-12.51
		c-1.32-3.9-3.21-7.29-5.67-10.17c-2.46-2.88-5.49-5.13-9.09-6.75c-3.6-1.62-7.62-2.43-12.06-2.43c-4.56,0-8.58,0.81-12.06,2.43
		c-3.48,1.62-6.45,3.87-8.91,6.75c-2.46,2.88-4.32,6.27-5.58,10.17c-1.26,3.9-1.89,8.07-1.89,12.51V135.39z"/>
	<path class="st0" d="M450.01,183.81c0,2.64-1.32,3.96-3.96,3.96h-3.06c-2.64,0-3.96-1.32-3.96-3.96V63.93
		c0-2.64,1.32-3.96,3.96-3.96h3.06c2.64,0,3.96,1.32,3.96,3.96V183.81z"/>
	<path class="st0" d="M466.45,133.77c0.48-6.12,1.71-11.73,3.69-16.83c1.98-5.1,4.62-9.45,7.92-13.05c3.3-3.6,7.29-6.42,11.97-8.46
		c4.68-2.04,9.96-3.06,15.84-3.06c12.6,0,22.38,4.11,29.34,12.33c6.96,8.22,10.44,19.59,10.44,34.11v2.7c0,1.2-0.39,2.16-1.17,2.88
		c-0.78,0.72-1.77,1.08-2.97,1.08h-64.08v1.8c0.12,4.08,0.87,8.04,2.25,11.88c1.38,3.84,3.27,7.23,5.67,10.17
		c2.4,2.94,5.34,5.31,8.82,7.11c3.48,1.8,7.38,2.7,11.7,2.7c3.84,0,7.2-0.48,10.08-1.44c2.88-0.96,5.34-2.07,7.38-3.33
		c2.04-1.26,3.69-2.55,4.95-3.87c1.26-1.32,2.13-2.34,2.61-3.06c1.08-1.56,1.92-2.49,2.52-2.79c0.6-0.3,1.56-0.45,2.88-0.45h2.88
		c1.08,0,2.01,0.33,2.79,0.99c0.78,0.66,1.11,1.53,0.99,2.61c-0.12,1.68-1.05,3.78-2.79,6.3c-1.74,2.52-4.2,4.92-7.38,7.2
		c-3.18,2.28-7.05,4.23-11.61,5.85c-4.56,1.62-9.66,2.43-15.3,2.43c-5.76,0-10.98-0.99-15.66-2.97c-4.68-1.98-8.7-4.8-12.06-8.46
		c-3.36-3.66-6.03-8.04-8.01-13.14c-1.98-5.1-3.21-10.71-3.69-16.83c-0.12-1.8-0.18-4.2-0.18-7.2
		C466.27,137.97,466.32,135.57,466.45,133.77z M477.43,135.39h57.24v-0.72c0-4.44-0.66-8.61-1.98-12.51
		c-1.32-3.9-3.21-7.29-5.67-10.17c-2.46-2.88-5.49-5.13-9.09-6.75c-3.6-1.62-7.62-2.43-12.06-2.43c-4.56,0-8.58,0.81-12.06,2.43
		c-3.48,1.62-6.45,3.87-8.91,6.75c-2.46,2.88-4.32,6.27-5.58,10.17c-1.26,3.9-1.89,8.07-1.89,12.51V135.39z"/>
	<path class="st0" d="M568.27,134.67c-0.12,1.8-0.18,3.9-0.18,6.3c0,2.4,0.06,4.5,0.18,6.3c0.36,11.28,3.21,19.41,8.55,24.39
		c5.34,4.98,12.09,7.47,20.25,7.47c6.36,0,11.73-1.35,16.11-4.05c4.38-2.7,7.83-7.47,10.35-14.31c0.6-1.44,1.14-2.43,1.62-2.97
		c0.48-0.54,1.38-0.81,2.7-0.81h2.52c1.08,0,2.04,0.36,2.88,1.08c0.84,0.72,1.2,1.68,1.08,2.88c-0.12,3.24-0.93,6.54-2.43,9.9
		c-1.5,3.36-3.78,6.45-6.84,9.27c-3.06,2.82-6.9,5.1-11.52,6.84c-4.62,1.74-10.11,2.61-16.47,2.61c-12.72,0-22.44-3.66-29.16-10.98
		c-6.72-7.32-10.26-17.46-10.62-30.42c-0.12-1.8-0.18-4.2-0.18-7.2c0-3,0.06-5.4,0.18-7.2c0.36-12.96,3.9-23.1,10.62-30.42
		c6.72-7.32,16.44-10.98,29.16-10.98c6.36,0,11.85,0.87,16.47,2.61c4.62,1.74,8.46,4.02,11.52,6.84c3.06,2.82,5.34,5.91,6.84,9.27
		c1.5,3.36,2.31,6.66,2.43,9.9c0.12,1.2-0.24,2.16-1.08,2.88c-0.84,0.72-1.8,1.08-2.88,1.08h-2.52c-1.32,0-2.22-0.27-2.7-0.81
		c-0.48-0.54-1.02-1.53-1.62-2.97c-2.52-6.84-5.97-11.61-10.35-14.31c-4.38-2.7-9.75-4.05-16.11-4.05c-8.16,0-14.91,2.49-20.25,7.47
		C571.48,115.26,568.63,123.39,568.27,134.67z"/>
</g>
<g>
	<path class="st1" d="M720.49,46.67L720.49,46.67c0,0-7.31-8.13-19.3-8.13c-2.45,0-9.54,0-11.02,0l-34.85,0.02
		c-0.62,0-1.23-0.03-1.84-0.09c-9.79-0.72-17.51-8.89-17.51-18.86c0-0.19,0-0.39,0.01-0.58c-3.22,9.68-0.98,20.8,6.72,28.49l0,0
		c0,0,7.31,8.13,19.3,8.13c2.45,0,9.54,0,11.02,0l34.85-0.02c0.62,0,1.23,0.03,1.84,0.09c9.79,0.72,17.51,8.89,17.51,18.86
		c0,0.19,0,0.39-0.01,0.58C730.42,65.48,728.18,54.37,720.49,46.67z"/>
	<g>
		<g>
			
				<linearGradient id="SVGID_1_" gradientUnits="userSpaceOnUse" x1="4049.9048" y1="-2780.0081" x2="4049.9048" y2="-2780.0081" gradientTransform="matrix(4.489700e-11 -1 1 4.489700e-11 3453.0254 4105.562)">
				<stop  offset="0" style="stop-color:#2B2523"/>
				<stop  offset="0.185" style="stop-color:#2D2725;stop-opacity:0.7687"/>
				<stop  offset="0.3049" style="stop-color:#342D2B;stop-opacity:0.6189"/>
				<stop  offset="0.4063" style="stop-color:#413937;stop-opacity:0.4921"/>
				<stop  offset="0.4975" style="stop-color:#544B49;stop-opacity:0.3782"/>
				<stop  offset="0.5818" style="stop-color:#6E6564;stop-opacity:0.2728"/>
				<stop  offset="0.6609" style="stop-color:#938C8A;stop-opacity:0.1739"/>
				<stop  offset="0.7347" style="stop-color:#C4BFBF;stop-opacity:0.0816"/>
				<stop  offset="0.8" style="stop-color:#FFFFFF;stop-opacity:0"/>
			</linearGradient>
			<polygon class="st2" points="673.02,55.66 673.02,55.66 673.02,55.66 			"/>
			
				<linearGradient id="SVGID_2_" gradientUnits="userSpaceOnUse" x1="4058.6919" y1="-2779.9966" x2="4058.6919" y2="-2802.1843" gradientTransform="matrix(4.489700e-11 -1 1 4.489700e-11 3453.0254 4105.562)">
				<stop  offset="0" style="stop-color:#2B2523"/>
				<stop  offset="0.0906" style="stop-color:#4C4442;stop-opacity:0.8868"/>
				<stop  offset="0.2108" style="stop-color:#78706E;stop-opacity:0.7365"/>
				<stop  offset="0.3318" style="stop-color:#A49D9C;stop-opacity:0.5852"/>
				<stop  offset="0.4519" style="stop-color:#C9C5C4;stop-opacity:0.4351"/>
				<stop  offset="0.5706" style="stop-color:#E7E4E4;stop-opacity:0.2867"/>
				<stop  offset="0.6874" style="stop-color:#F9F8F9;stop-opacity:0.1408"/>
				<stop  offset="0.8" style="stop-color:#FFFFFF;stop-opacity:0"/>
			</linearGradient>
			<path class="st3" d="M673.03,38.55l-17.71,0.01c-0.62,0-1.23-0.03-1.84-0.09c-0.9-0.07-1.78-0.2-2.64-0.38
				c0.52,3.66,2.1,7.19,4.73,10.11c6.16,6.84,15.81,7.46,17.44,7.46L673.03,38.55z"/>
		</g>
		<g>
			
				<linearGradient id="SVGID_3_" gradientUnits="userSpaceOnUse" x1="3727.5718" y1="3103.0557" x2="3727.5718" y2="3080.8679" gradientTransform="matrix(-1.346900e-10 1 -1 -1.346900e-10 3793.2095 -3680.2419)">
				<stop  offset="0" style="stop-color:#2B2523"/>
				<stop  offset="0.0906" style="stop-color:#4C4442;stop-opacity:0.8868"/>
				<stop  offset="0.2108" style="stop-color:#78706E;stop-opacity:0.7365"/>
				<stop  offset="0.3318" style="stop-color:#A49D9C;stop-opacity:0.5852"/>
				<stop  offset="0.4519" style="stop-color:#C9C5C4;stop-opacity:0.4351"/>
				<stop  offset="0.5706" style="stop-color:#E7E4E4;stop-opacity:0.2867"/>
				<stop  offset="0.6874" style="stop-color:#F9F8F9;stop-opacity:0.1408"/>
				<stop  offset="0.8" style="stop-color:#FFFFFF;stop-opacity:0"/>
			</linearGradient>
			<path class="st4" d="M690.15,55.65l17.71-0.01c0.62,0,1.23,0.03,1.84,0.09c0.9,0.07,1.78,0.2,2.64,0.38
				c-0.52-3.66-2.1-7.19-4.73-10.11c-6.16-6.84-15.71-7.41-17.44-7.46L690.15,55.65z"/>
		</g>
	</g>
	<linearGradient id="SVGID_4_" gradientUnits="userSpaceOnUse" x1="642.6814" y1="8.1794" x2="720.512" y2="86.01">
		<stop  offset="0.0996" style="stop-color:#E63312"/>
		<stop  offset="0.8977" style="stop-color:#164194"/>
	</linearGradient>
	<path class="st5" d="M720.49,46.67L720.49,46.67c0,0-7.31-8.13-19.3-8.13c-2.45,0-9.53,0-11.02,0V27.83
		C690.17,12.49,677.68,0,662.34,0c-3.09,0-6.07,0.51-8.85,1.44c10.69,0,19.55,8.69,19.55,19.37c0,0-0.02,34.73-0.02,34.84
		c-1.62,0-11.28-0.62-17.44-7.46c-6.8-7.55-6.56-19.18,0.7-26.45c0.08-0.08,1.52-1.43,2.27-3.45c1.04-2.79,1.13-6.8-2.23-10.13
		c-3.78-3.74-9.86-3.76-13.62,0c-10.85,10.85-10.85,28.51,0,39.36l0,0c0,0,7.31,8.13,19.3,8.13c2.45,0,11.02,0,11.02,0l-0.01,10.68
		c0,15.35,12.49,27.83,27.83,27.83c3.09,0,6.07-0.51,8.85-1.44c-10.69,0-19.52-8.68-19.52-19.37V38.55
		c1.75,0.05,11.28,0.62,17.44,7.46c6.8,7.55,6.56,19.18-0.7,26.45c-0.08,0.08-1.52,1.43-2.27,3.45c-1.04,2.79-1.13,6.8,2.23,10.13
		c3.78,3.74,9.86,3.76,13.62,0C731.34,75.18,731.34,57.53,720.49,46.67z"/>
</g>
<g>
	<path class="st0" d="M30.98,226.72c0.41,0,0.77,0.15,1.07,0.45c0.3,0.3,0.45,0.66,0.45,1.07v2.03c0,0.42-0.15,0.77-0.45,1.07
		c-0.3,0.3-0.66,0.45-1.07,0.45H20.42v32.93c0,0.42-0.15,0.77-0.45,1.07c-0.3,0.3-0.66,0.45-1.07,0.45h-2.32
		c-0.42,0-0.77-0.15-1.07-0.45c-0.3-0.3-0.45-0.66-0.45-1.07V231.8H4.49c-0.42,0-0.77-0.15-1.07-0.45c-0.3-0.3-0.45-0.66-0.45-1.07
		v-2.03c0-0.41,0.15-0.77,0.45-1.07c0.3-0.3,0.66-0.45,1.07-0.45H30.98z"/>
	<path class="st0" d="M44.49,236.32c2.03,0,3.84,0.31,5.42,0.93c1.58,0.62,2.94,1.48,4.07,2.57c1.13,1.09,2.02,2.42,2.68,3.98
		c0.66,1.56,1.06,3.27,1.21,5.11c0.04,0.34,0.06,0.74,0.06,1.21s0,0.96,0,1.47c0,0.51,0,1,0,1.47c0,0.47-0.02,0.86-0.06,1.16
		c-0.19,1.88-0.6,3.6-1.24,5.14c-0.64,1.54-1.52,2.86-2.65,3.95c-1.13,1.09-2.49,1.95-4.07,2.57c-1.58,0.62-3.39,0.93-5.42,0.93
		s-3.84-0.31-5.42-0.93s-2.94-1.48-4.07-2.57c-1.13-1.09-2.02-2.41-2.68-3.95c-0.66-1.54-1.06-3.26-1.21-5.14
		c-0.04-0.3-0.07-0.69-0.08-1.16c-0.02-0.47-0.03-0.96-0.03-1.47c0-0.51,0.01-1,0.03-1.47c0.02-0.47,0.05-0.88,0.08-1.21
		c0.15-1.84,0.56-3.55,1.21-5.11c0.66-1.56,1.55-2.89,2.68-3.98c1.13-1.09,2.48-1.95,4.07-2.57S42.45,236.32,44.49,236.32z
		 M52.73,253.94c0.08-0.64,0.11-1.42,0.11-2.34c0-0.92-0.04-1.72-0.11-2.4c-0.11-1.13-0.36-2.18-0.73-3.16
		c-0.38-0.98-0.9-1.83-1.58-2.54c-0.68-0.71-1.51-1.28-2.48-1.69c-0.98-0.41-2.13-0.62-3.45-0.62c-1.32,0-2.47,0.21-3.45,0.62
		c-0.98,0.42-1.81,0.98-2.49,1.69c-0.68,0.72-1.21,1.56-1.58,2.54c-0.38,0.98-0.62,2.03-0.73,3.16c-0.08,0.68-0.11,1.48-0.11,2.4
		c0,0.92,0.04,1.7,0.11,2.34c0.11,1.13,0.36,2.18,0.73,3.16c0.38,0.98,0.9,1.83,1.58,2.54c0.68,0.72,1.51,1.28,2.49,1.69
		c0.98,0.42,2.13,0.62,3.45,0.62c1.32,0,2.47-0.21,3.45-0.62c0.98-0.41,1.81-0.98,2.48-1.69c0.68-0.71,1.21-1.56,1.58-2.54
		C52.38,256.13,52.62,255.07,52.73,253.94z"/>
	<path class="st0" d="M63.06,249.71c0.11-2.07,0.51-3.93,1.19-5.59c0.68-1.66,1.58-3.06,2.71-4.21c1.13-1.15,2.46-2.03,3.98-2.65
		s3.17-0.93,4.94-0.93c2.33,0,4.2,0.4,5.59,1.21c1.39,0.81,2.45,1.69,3.16,2.63v-1.75c0-0.41,0.15-0.77,0.45-1.07
		c0.3-0.3,0.66-0.45,1.07-0.45h2.09c0.41,0,0.77,0.15,1.07,0.45c0.3,0.3,0.45,0.66,0.45,1.07v27.45c0,3.92-1.11,7.03-3.33,9.35
		c-2.22,2.32-5.55,3.47-10,3.47c-2.26,0-4.19-0.27-5.79-0.81c-1.6-0.54-2.92-1.23-3.95-2.05c-1.04-0.83-1.81-1.72-2.32-2.7
		c-0.51-0.97-0.78-1.91-0.82-2.81c-0.04-0.41,0.1-0.77,0.42-1.07c0.32-0.3,0.69-0.45,1.1-0.45h1.69c0.41,0,0.76,0.1,1.04,0.31
		s0.56,0.6,0.82,1.2c0.11,0.22,0.29,0.53,0.54,0.92c0.24,0.39,0.64,0.78,1.19,1.17c0.55,0.39,1.26,0.73,2.15,1.01
		c0.88,0.28,2,0.42,3.36,0.42c1.24,0,2.4-0.12,3.47-0.37c1.07-0.25,2.01-0.65,2.8-1.21c0.79-0.57,1.4-1.32,1.84-2.26
		c0.43-0.94,0.65-2.09,0.65-3.45v-3.56c-0.75,1.02-1.83,1.91-3.22,2.68c-1.39,0.77-3.24,1.16-5.54,1.16c-1.77,0-3.42-0.31-4.94-0.93
		s-2.85-1.51-3.98-2.65c-1.13-1.15-2.03-2.55-2.71-4.21c-0.68-1.66-1.07-3.52-1.19-5.59c-0.04-0.56-0.06-1.19-0.06-1.86
		C63.01,250.89,63.03,250.27,63.06,249.71z M84.64,249.54c-0.11-2.67-0.91-4.73-2.4-6.18c-1.49-1.45-3.42-2.17-5.79-2.17
		c-2.49,0-4.44,0.79-5.87,2.37c-1.43,1.58-2.22,3.73-2.37,6.44c-0.04,1.05-0.04,2.11,0,3.16c0.15,2.71,0.94,4.86,2.37,6.44
		c1.43,1.58,3.39,2.37,5.87,2.37c2.37,0,4.3-0.73,5.79-2.2c1.49-1.47,2.29-3.52,2.4-6.16c0.04-0.57,0.06-1.24,0.06-2.03
		C84.7,250.78,84.68,250.1,84.64,249.54z"/>
	<path class="st0" d="M96.09,248.75c0.15-1.73,0.56-3.35,1.24-4.86s1.56-2.82,2.65-3.95c1.09-1.13,2.4-2.01,3.93-2.65
		c1.52-0.64,3.23-0.96,5.11-0.96c2.03,0,3.85,0.33,5.45,0.99c1.6,0.66,2.97,1.61,4.09,2.85c1.13,1.24,2,2.75,2.6,4.52
		c0.6,1.77,0.9,3.75,0.9,5.93v1.53c0,0.42-0.15,0.77-0.45,1.07c-0.3,0.3-0.66,0.45-1.07,0.45h-19.43V254
		c0.08,2.56,0.86,4.53,2.34,5.9c1.49,1.38,3.34,2.06,5.56,2.06c2.07,0,3.62-0.29,4.66-0.88c1.04-0.58,1.87-1.23,2.51-1.95
		c0.3-0.3,0.56-0.51,0.79-0.62c0.23-0.11,0.56-0.17,1.02-0.17h1.69c0.41,0,0.79,0.15,1.13,0.45s0.47,0.66,0.4,1.07
		c-0.11,0.68-0.43,1.42-0.96,2.23c-0.53,0.81-1.29,1.56-2.29,2.26c-1,0.7-2.24,1.28-3.73,1.75c-1.49,0.47-3.23,0.71-5.22,0.71
		c-1.88,0-3.58-0.33-5.08-0.99c-1.51-0.66-2.82-1.56-3.93-2.71c-1.11-1.15-2.01-2.5-2.68-4.07s-1.09-3.27-1.24-5.11
		C95.9,252.21,95.9,250.48,96.09,248.75z M101.12,248.92h15.87v-0.17c0-2.3-0.73-4.13-2.17-5.51c-1.45-1.37-3.38-2.06-5.79-2.06
		c-1.09,0-2.11,0.18-3.05,0.54c-0.94,0.36-1.77,0.87-2.49,1.53c-0.72,0.66-1.28,1.46-1.69,2.4c-0.41,0.94-0.64,1.98-0.68,3.11
		V248.92z"/>
	<path class="st0" d="M135.87,256.37c0,0.72,0.07,1.38,0.2,2c0.13,0.62,0.37,1.16,0.71,1.61s0.82,0.8,1.44,1.04
		c0.62,0.25,1.42,0.37,2.4,0.37h2.99c0.41,0,0.77,0.15,1.07,0.45c0.3,0.3,0.45,0.66,0.45,1.07v1.81c0,0.42-0.15,0.77-0.45,1.07
		c-0.3,0.3-0.66,0.45-1.07,0.45h-3.56c-3.28,0-5.65-0.85-7.12-2.54c-1.47-1.69-2.2-4.14-2.2-7.34v-14.63h-4.18
		c-0.42,0-0.77-0.15-1.07-0.45c-0.3-0.3-0.45-0.66-0.45-1.07v-1.81c0-0.41,0.15-0.77,0.45-1.07c0.3-0.3,0.66-0.45,1.07-0.45h4.18
		v-9.21c0-0.41,0.15-0.77,0.45-1.07c0.3-0.3,0.66-0.45,1.07-0.45h2.09c0.41,0,0.77,0.15,1.07,0.45c0.3,0.3,0.45,0.66,0.45,1.07v9.21
		h7.17c0.41,0,0.77,0.15,1.07,0.45c0.3,0.3,0.45,0.66,0.45,1.07v1.81c0,0.42-0.15,0.77-0.45,1.07c-0.3,0.3-0.66,0.45-1.07,0.45
		h-7.17V256.37z"/>
	<path class="st0" d="M176.33,264.73c0,0.42-0.15,0.77-0.45,1.07c-0.3,0.3-0.66,0.45-1.07,0.45h-2.09c-0.41,0-0.77-0.15-1.07-0.45
		c-0.3-0.3-0.45-0.66-0.45-1.07v-14.91c0-2.9-0.7-5.06-2.09-6.5c-1.39-1.43-3.33-2.15-5.82-2.15c-2.37,0-4.28,0.72-5.73,2.15
		c-1.45,1.43-2.17,3.6-2.17,6.5v14.91c0,0.42-0.15,0.77-0.45,1.07c-0.3,0.3-0.66,0.45-1.07,0.45h-2.09c-0.42,0-0.77-0.15-1.07-0.45
		c-0.3-0.3-0.45-0.66-0.45-1.07v-37.05c0-0.41,0.15-0.77,0.45-1.07c0.3-0.3,0.66-0.45,1.07-0.45h2.09c0.41,0,0.77,0.15,1.07,0.45
		c0.3,0.3,0.45,0.66,0.45,1.07v12.48c0.71-0.94,1.78-1.82,3.19-2.63c1.41-0.81,3.27-1.21,5.56-1.21c1.77,0,3.41,0.29,4.91,0.88
		c1.51,0.58,2.8,1.41,3.87,2.49s1.91,2.4,2.51,3.98c0.6,1.58,0.9,3.35,0.9,5.31V264.73z"/>
	<path class="st0" d="M182.31,248.75c0.15-1.73,0.56-3.35,1.24-4.86s1.56-2.82,2.65-3.95c1.09-1.13,2.4-2.01,3.93-2.65
		c1.52-0.64,3.23-0.96,5.11-0.96c2.03,0,3.85,0.33,5.45,0.99c1.6,0.66,2.97,1.61,4.09,2.85c1.13,1.24,2,2.75,2.6,4.52
		c0.6,1.77,0.9,3.75,0.9,5.93v1.53c0,0.42-0.15,0.77-0.45,1.07c-0.3,0.3-0.66,0.45-1.07,0.45h-19.43V254
		c0.08,2.56,0.86,4.53,2.34,5.9c1.49,1.38,3.34,2.06,5.56,2.06c2.07,0,3.62-0.29,4.66-0.88c1.04-0.58,1.87-1.23,2.51-1.95
		c0.3-0.3,0.56-0.51,0.79-0.62c0.23-0.11,0.56-0.17,1.02-0.17h1.69c0.41,0,0.79,0.15,1.13,0.45s0.47,0.66,0.4,1.07
		c-0.11,0.68-0.43,1.42-0.96,2.23c-0.53,0.81-1.29,1.56-2.29,2.26c-1,0.7-2.24,1.28-3.73,1.75c-1.49,0.47-3.23,0.71-5.22,0.71
		c-1.88,0-3.58-0.33-5.08-0.99c-1.51-0.66-2.82-1.56-3.93-2.71c-1.11-1.15-2.01-2.5-2.68-4.07s-1.09-3.27-1.24-5.11
		C182.12,252.21,182.12,250.48,182.31,248.75z M187.34,248.92h15.87v-0.17c0-2.3-0.73-4.13-2.17-5.51
		c-1.45-1.37-3.38-2.06-5.79-2.06c-1.09,0-2.11,0.18-3.05,0.54c-0.94,0.36-1.77,0.87-2.49,1.53c-0.72,0.66-1.28,1.46-1.69,2.4
		c-0.41,0.94-0.64,1.98-0.68,3.11V248.92z"/>
	<path class="st0" d="M229.29,236.89c0.41,0,0.77,0.15,1.07,0.45c0.3,0.3,0.45,0.66,0.45,1.07v1.81c0,0.42-0.15,0.77-0.45,1.07
		c-0.3,0.3-0.66,0.45-1.07,0.45h-3.28c-4.33,0-6.5,2.17-6.5,6.5v16.49c0,0.42-0.15,0.77-0.45,1.07c-0.3,0.3-0.66,0.45-1.07,0.45
		h-2.09c-0.42,0-0.77-0.15-1.07-0.45c-0.3-0.3-0.45-0.66-0.45-1.07v-26.32c0-0.41,0.15-0.77,0.45-1.07c0.3-0.3,0.66-0.45,1.07-0.45
		h2.09c0.41,0,0.77,0.15,1.07,0.45c0.3,0.3,0.45,0.66,0.45,1.07v1.75c0.75-1.13,1.66-1.96,2.71-2.49c1.05-0.53,2.43-0.79,4.12-0.79
		H229.29z"/>
	<path class="st0" d="M258.32,236.89h7.17c0.41,0,0.77,0.15,1.07,0.45c0.3,0.3,0.45,0.66,0.45,1.07v1.81c0,0.42-0.15,0.77-0.45,1.07
		c-0.3,0.3-0.66,0.45-1.07,0.45h-7.17v22.99c0,0.42-0.15,0.77-0.45,1.07c-0.3,0.3-0.66,0.45-1.07,0.45h-2.09
		c-0.42,0-0.77-0.15-1.07-0.45c-0.3-0.3-0.45-0.66-0.45-1.07v-22.99h-4.74c-0.42,0-0.77-0.15-1.07-0.45
		c-0.3-0.3-0.45-0.66-0.45-1.07v-1.81c0-0.41,0.15-0.77,0.45-1.07c0.3-0.3,0.66-0.45,1.07-0.45h4.74v-2.82c0-3.2,0.73-5.6,2.2-7.2
		c1.47-1.6,3.84-2.4,7.12-2.4h3.56c0.41,0,0.77,0.15,1.07,0.45c0.3,0.3,0.45,0.66,0.45,1.07v1.81c0,0.42-0.15,0.77-0.45,1.07
		c-0.3,0.3-0.66,0.45-1.07,0.45h-2.99c-0.98,0-1.78,0.12-2.4,0.37c-0.62,0.25-1.1,0.59-1.44,1.04s-0.57,0.99-0.71,1.61
		c-0.13,0.62-0.2,1.29-0.2,2V236.89z"/>
	<path class="st0" d="M283.38,236.32c2.03,0,3.84,0.31,5.42,0.93c1.58,0.62,2.94,1.48,4.07,2.57c1.13,1.09,2.02,2.42,2.68,3.98
		c0.66,1.56,1.06,3.27,1.21,5.11c0.04,0.34,0.06,0.74,0.06,1.21s0,0.96,0,1.47c0,0.51,0,1,0,1.47c0,0.47-0.02,0.86-0.06,1.16
		c-0.19,1.88-0.6,3.6-1.24,5.14c-0.64,1.54-1.52,2.86-2.65,3.95c-1.13,1.09-2.49,1.95-4.07,2.57c-1.58,0.62-3.39,0.93-5.42,0.93
		s-3.84-0.31-5.42-0.93s-2.94-1.48-4.07-2.57c-1.13-1.09-2.02-2.41-2.68-3.95c-0.66-1.54-1.06-3.26-1.21-5.14
		c-0.04-0.3-0.07-0.69-0.08-1.16c-0.02-0.47-0.03-0.96-0.03-1.47c0-0.51,0.01-1,0.03-1.47c0.02-0.47,0.05-0.88,0.08-1.21
		c0.15-1.84,0.56-3.55,1.21-5.11c0.66-1.56,1.55-2.89,2.68-3.98c1.13-1.09,2.48-1.95,4.07-2.57S281.34,236.32,283.38,236.32z
		 M291.62,253.94c0.08-0.64,0.11-1.42,0.11-2.34c0-0.92-0.04-1.72-0.11-2.4c-0.11-1.13-0.36-2.18-0.73-3.16
		c-0.38-0.98-0.9-1.83-1.58-2.54c-0.68-0.71-1.51-1.28-2.48-1.69c-0.98-0.41-2.13-0.62-3.45-0.62c-1.32,0-2.47,0.21-3.45,0.62
		c-0.98,0.42-1.81,0.98-2.49,1.69c-0.68,0.72-1.21,1.56-1.58,2.54c-0.38,0.98-0.62,2.03-0.73,3.16c-0.08,0.68-0.11,1.48-0.11,2.4
		c0,0.92,0.04,1.7,0.11,2.34c0.11,1.13,0.36,2.18,0.73,3.16c0.38,0.98,0.9,1.83,1.58,2.54c0.68,0.72,1.51,1.28,2.49,1.69
		c0.98,0.42,2.13,0.62,3.45,0.62c1.32,0,2.47-0.21,3.45-0.62c0.98-0.41,1.81-0.98,2.48-1.69c0.68-0.71,1.21-1.56,1.58-2.54
		C291.26,256.13,291.51,255.07,291.62,253.94z"/>
	<path class="st0" d="M318.11,236.89c0.41,0,0.77,0.15,1.07,0.45c0.3,0.3,0.45,0.66,0.45,1.07v1.81c0,0.42-0.15,0.77-0.45,1.07
		c-0.3,0.3-0.66,0.45-1.07,0.45h-3.28c-4.33,0-6.5,2.17-6.5,6.5v16.49c0,0.42-0.15,0.77-0.45,1.07c-0.3,0.3-0.66,0.45-1.07,0.45
		h-2.09c-0.42,0-0.77-0.15-1.07-0.45c-0.3-0.3-0.45-0.66-0.45-1.07v-26.32c0-0.41,0.15-0.77,0.45-1.07c0.3-0.3,0.66-0.45,1.07-0.45
		h2.09c0.41,0,0.77,0.15,1.07,0.45c0.3,0.3,0.45,0.66,0.45,1.07v1.75c0.75-1.13,1.66-1.96,2.71-2.49c1.05-0.53,2.43-0.79,4.12-0.79
		H318.11z"/>
	<path class="st0" d="M370.18,242.03c0.04,1.69,0.06,3.18,0.06,4.46c0,1.28-0.02,2.77-0.06,4.46c-0.04,2.37-0.45,4.51-1.24,6.41
		c-0.79,1.9-1.88,3.51-3.28,4.83c-1.39,1.32-3.05,2.33-4.97,3.02c-1.92,0.7-4.05,1.04-6.38,1.04h-13.27c-0.41,0-0.77-0.15-1.07-0.45
		c-0.3-0.3-0.45-0.66-0.45-1.07v-36.49c0-0.41,0.15-0.77,0.45-1.07c0.3-0.3,0.66-0.45,1.07-0.45h12.93c2.33,0,4.49,0.35,6.47,1.04
		c1.98,0.7,3.68,1.71,5.11,3.02c1.43,1.32,2.55,2.93,3.36,4.83C369.72,237.52,370.14,239.65,370.18,242.03z M364.81,242.31
		c-0.04-1.36-0.25-2.66-0.65-3.92s-1.03-2.38-1.89-3.36c-0.87-0.98-2-1.76-3.39-2.34c-1.39-0.58-3.11-0.88-5.14-0.88h-8.87v29.37
		h9.15c2.03,0,3.74-0.29,5.11-0.88c1.37-0.58,2.48-1.36,3.3-2.34c0.83-0.98,1.42-2.1,1.78-3.36c0.36-1.26,0.56-2.57,0.59-3.93
		c0-0.83,0.01-1.57,0.03-2.23c0.02-0.66,0.03-1.3,0.03-1.92s-0.01-1.26-0.03-1.92C364.82,243.94,364.81,243.18,364.81,242.31z"/>
	<path class="st0" d="M382.76,230.9c0,0.42-0.15,0.77-0.45,1.07c-0.3,0.3-0.66,0.45-1.07,0.45h-3.22c-0.42,0-0.77-0.15-1.07-0.45
		c-0.3-0.3-0.45-0.66-0.45-1.07v-3.22c0-0.41,0.15-0.77,0.45-1.07c0.3-0.3,0.66-0.45,1.07-0.45h3.22c0.41,0,0.77,0.15,1.07,0.45
		c0.3,0.3,0.45,0.66,0.45,1.07V230.9z M382.2,264.73c0,0.42-0.15,0.77-0.45,1.07c-0.3,0.3-0.66,0.45-1.07,0.45h-2.09
		c-0.42,0-0.77-0.15-1.07-0.45c-0.3-0.3-0.45-0.66-0.45-1.07v-26.32c0-0.41,0.15-0.77,0.45-1.07c0.3-0.3,0.66-0.45,1.07-0.45h2.09
		c0.41,0,0.77,0.15,1.07,0.45c0.3,0.3,0.45,0.66,0.45,1.07V264.73z"/>
	<path class="st0" d="M388.41,249.71c0.11-2.07,0.51-3.93,1.19-5.59c0.68-1.66,1.58-3.06,2.71-4.21c1.13-1.15,2.46-2.03,3.98-2.65
		s3.17-0.93,4.94-0.93c2.33,0,4.2,0.4,5.59,1.21c1.39,0.81,2.45,1.69,3.16,2.63v-1.75c0-0.41,0.15-0.77,0.45-1.07
		c0.3-0.3,0.66-0.45,1.07-0.45h2.09c0.41,0,0.77,0.15,1.07,0.45c0.3,0.3,0.45,0.66,0.45,1.07v27.45c0,3.92-1.11,7.03-3.33,9.35
		c-2.22,2.32-5.55,3.47-10,3.47c-2.26,0-4.19-0.27-5.79-0.81c-1.6-0.54-2.92-1.23-3.95-2.05c-1.04-0.83-1.81-1.72-2.32-2.7
		c-0.51-0.97-0.78-1.91-0.82-2.81c-0.04-0.41,0.1-0.77,0.42-1.07c0.32-0.3,0.69-0.45,1.1-0.45h1.69c0.41,0,0.76,0.1,1.04,0.31
		s0.56,0.6,0.82,1.2c0.11,0.22,0.29,0.53,0.54,0.92c0.24,0.39,0.64,0.78,1.19,1.17c0.55,0.39,1.26,0.73,2.15,1.01
		c0.88,0.28,2,0.42,3.36,0.42c1.24,0,2.4-0.12,3.47-0.37c1.07-0.25,2.01-0.65,2.8-1.21c0.79-0.57,1.4-1.32,1.84-2.26
		c0.43-0.94,0.65-2.09,0.65-3.45v-3.56c-0.75,1.02-1.83,1.91-3.22,2.68c-1.39,0.77-3.24,1.16-5.54,1.16c-1.77,0-3.42-0.31-4.94-0.93
		s-2.85-1.51-3.98-2.65c-1.13-1.15-2.03-2.55-2.71-4.21c-0.68-1.66-1.07-3.52-1.19-5.59c-0.04-0.56-0.06-1.19-0.06-1.86
		C388.35,250.89,388.37,250.27,388.41,249.71z M409.99,249.54c-0.11-2.67-0.91-4.73-2.4-6.18c-1.49-1.45-3.42-2.17-5.79-2.17
		c-2.49,0-4.44,0.79-5.87,2.37c-1.43,1.58-2.22,3.73-2.37,6.44c-0.04,1.05-0.04,2.11,0,3.16c0.15,2.71,0.94,4.86,2.37,6.44
		c1.43,1.58,3.39,2.37,5.87,2.37c2.37,0,4.3-0.73,5.79-2.2c1.49-1.47,2.29-3.52,2.4-6.16c0.04-0.57,0.06-1.24,0.06-2.03
		C410.04,250.78,410.02,250.1,409.99,249.54z"/>
	<path class="st0" d="M428.43,230.9c0,0.42-0.15,0.77-0.45,1.07c-0.3,0.3-0.66,0.45-1.07,0.45h-3.22c-0.42,0-0.77-0.15-1.07-0.45
		c-0.3-0.3-0.45-0.66-0.45-1.07v-3.22c0-0.41,0.15-0.77,0.45-1.07c0.3-0.3,0.66-0.45,1.07-0.45h3.22c0.41,0,0.77,0.15,1.07,0.45
		c0.3,0.3,0.45,0.66,0.45,1.07V230.9z M427.86,264.73c0,0.42-0.15,0.77-0.45,1.07c-0.3,0.3-0.66,0.45-1.07,0.45h-2.09
		c-0.42,0-0.77-0.15-1.07-0.45c-0.3-0.3-0.45-0.66-0.45-1.07v-26.32c0-0.41,0.15-0.77,0.45-1.07c0.3-0.3,0.66-0.45,1.07-0.45h2.09
		c0.41,0,0.77,0.15,1.07,0.45c0.3,0.3,0.45,0.66,0.45,1.07V264.73z"/>
	<path class="st0" d="M443.65,256.37c0,0.72,0.07,1.38,0.2,2c0.13,0.62,0.37,1.16,0.71,1.61s0.82,0.8,1.44,1.04
		c0.62,0.25,1.42,0.37,2.4,0.37h2.99c0.41,0,0.77,0.15,1.07,0.45c0.3,0.3,0.45,0.66,0.45,1.07v1.81c0,0.42-0.15,0.77-0.45,1.07
		c-0.3,0.3-0.66,0.45-1.07,0.45h-3.56c-3.28,0-5.65-0.85-7.12-2.54c-1.47-1.69-2.2-4.14-2.2-7.34v-14.63h-4.18
		c-0.42,0-0.77-0.15-1.07-0.45c-0.3-0.3-0.45-0.66-0.45-1.07v-1.81c0-0.41,0.15-0.77,0.45-1.07c0.3-0.3,0.66-0.45,1.07-0.45h4.18
		v-9.21c0-0.41,0.15-0.77,0.45-1.07c0.3-0.3,0.66-0.45,1.07-0.45h2.09c0.41,0,0.77,0.15,1.07,0.45c0.3,0.3,0.45,0.66,0.45,1.07v9.21
		h7.17c0.41,0,0.77,0.15,1.07,0.45c0.3,0.3,0.45,0.66,0.45,1.07v1.81c0,0.42-0.15,0.77-0.45,1.07c-0.3,0.3-0.66,0.45-1.07,0.45
		h-7.17V256.37z"/>
	<path class="st0" d="M456.79,258.86c0-1.5,0.3-2.82,0.9-3.95c0.6-1.13,1.43-2.09,2.49-2.88c1.05-0.79,2.29-1.43,3.7-1.92
		s2.91-0.87,4.49-1.13l7.96-1.3v-0.73c0-1.92-0.63-3.36-1.89-4.32c-1.26-0.96-2.83-1.44-4.72-1.44c-1.66,0-2.91,0.3-3.76,0.9
		c-0.85,0.6-1.57,1.32-2.17,2.15c-0.23,0.3-0.47,0.51-0.73,0.62s-0.62,0.17-1.07,0.17h-1.69c-0.41,0-0.78-0.15-1.1-0.45
		c-0.32-0.3-0.46-0.66-0.42-1.07c0.08-0.83,0.4-1.67,0.99-2.54c0.58-0.87,1.37-1.64,2.37-2.32c1-0.68,2.15-1.23,3.45-1.67
		c1.3-0.43,2.68-0.65,4.15-0.65c1.69,0,3.27,0.25,4.72,0.73s2.69,1.21,3.73,2.15c1.04,0.94,1.84,2.11,2.43,3.5
		c0.58,1.39,0.88,2.99,0.88,4.8v17.23c0,0.42-0.15,0.77-0.45,1.07c-0.3,0.3-0.66,0.45-1.07,0.45h-2.09c-0.42,0-0.77-0.15-1.07-0.45
		c-0.3-0.3-0.45-0.66-0.45-1.07v-2.32c-0.34,0.72-0.87,1.35-1.58,1.89c-0.72,0.55-1.54,1.01-2.46,1.38
		c-0.92,0.38-1.88,0.66-2.88,0.85c-1,0.19-1.93,0.28-2.8,0.28c-1.47,0-2.82-0.21-4.04-0.62c-1.22-0.41-2.26-0.97-3.11-1.67
		c-0.85-0.7-1.51-1.53-1.98-2.51C457.02,261.04,456.79,259.99,456.79,258.86z M467.18,261.96c1.36,0,2.6-0.21,3.73-0.62
		c1.13-0.41,2.1-0.99,2.91-1.72s1.43-1.61,1.86-2.63c0.43-1.02,0.65-2.15,0.65-3.39v-1.41l-6.67,1.07
		c-2.37,0.38-4.25,0.98-5.65,1.81c-1.39,0.83-2.09,1.9-2.09,3.22c0,0.42,0.09,0.83,0.28,1.24c0.19,0.42,0.49,0.81,0.9,1.19
		c0.41,0.38,0.95,0.68,1.61,0.9C465.38,261.85,466.2,261.96,467.18,261.96z"/>
	<path class="st0" d="M494.05,264.73c0,0.42-0.15,0.77-0.45,1.07c-0.3,0.3-0.66,0.45-1.07,0.45h-2.09c-0.42,0-0.77-0.15-1.07-0.45
		c-0.3-0.3-0.45-0.66-0.45-1.07v-37.05c0-0.41,0.15-0.77,0.45-1.07c0.3-0.3,0.66-0.45,1.07-0.45h2.09c0.41,0,0.77,0.15,1.07,0.45
		c0.3,0.3,0.45,0.66,0.45,1.07V264.73z"/>
	<path class="st0" d="M521.39,241.74c-0.08,1.69-0.11,3.28-0.11,4.74c0,1.47,0.04,3.05,0.11,4.75c0.11,3.12,1.06,5.66,2.85,7.6
		c1.79,1.94,4.36,2.91,7.71,2.91c1.81,0,3.33-0.23,4.58-0.68c1.24-0.45,2.27-1.04,3.08-1.75c0.81-0.71,1.43-1.53,1.86-2.46
		c0.43-0.92,0.76-1.85,0.99-2.8c0.08-0.41,0.26-0.72,0.57-0.93c0.3-0.21,0.6-0.31,0.9-0.31h2.6c0.34,0,0.63,0.12,0.88,0.37
		c0.24,0.25,0.37,0.54,0.37,0.88c-0.04,1.24-0.36,2.6-0.96,4.07c-0.6,1.47-1.54,2.85-2.8,4.15c-1.26,1.3-2.88,2.38-4.86,3.25
		c-1.98,0.87-4.38,1.3-7.2,1.3c-2.45,0-4.63-0.39-6.55-1.16c-1.92-0.77-3.57-1.84-4.94-3.19c-1.38-1.36-2.44-2.96-3.19-4.83
		s-1.17-3.91-1.24-6.13c-0.11-3.35-0.11-6.7,0-10.05c0.08-2.18,0.49-4.22,1.24-6.1c0.75-1.88,1.82-3.5,3.19-4.86
		c1.37-1.36,3.02-2.42,4.94-3.19c1.92-0.77,4.1-1.16,6.55-1.16c2.82,0,5.22,0.43,7.2,1.3c1.98,0.87,3.6,1.95,4.86,3.25
		c1.26,1.3,2.19,2.68,2.8,4.15c0.6,1.47,0.92,2.82,0.96,4.07c0,0.34-0.12,0.63-0.37,0.88c-0.25,0.25-0.54,0.37-0.88,0.37h-2.6
		c-0.3,0-0.6-0.1-0.9-0.31c-0.3-0.21-0.49-0.52-0.57-0.93c-0.23-0.94-0.56-1.87-0.99-2.8c-0.43-0.92-1.05-1.74-1.86-2.46
		c-0.81-0.71-1.84-1.3-3.08-1.75c-1.24-0.45-2.77-0.68-4.58-0.68c-3.35,0-5.92,0.97-7.71,2.91
		C522.45,236.09,521.5,238.62,521.39,241.74z"/>
	<path class="st0" d="M552.42,258.86c0-1.5,0.3-2.82,0.9-3.95s1.43-2.09,2.49-2.88c1.05-0.79,2.29-1.43,3.7-1.92
		c1.41-0.49,2.91-0.87,4.49-1.13l7.96-1.3v-0.73c0-1.92-0.63-3.36-1.89-4.32c-1.26-0.96-2.83-1.44-4.72-1.44
		c-1.66,0-2.91,0.3-3.76,0.9c-0.85,0.6-1.57,1.32-2.17,2.15c-0.23,0.3-0.47,0.51-0.73,0.62c-0.26,0.11-0.62,0.17-1.07,0.17h-1.69
		c-0.42,0-0.78-0.15-1.1-0.45c-0.32-0.3-0.46-0.66-0.42-1.07c0.08-0.83,0.4-1.67,0.99-2.54c0.58-0.87,1.37-1.64,2.37-2.32
		c1-0.68,2.15-1.23,3.45-1.67c1.3-0.43,2.68-0.65,4.15-0.65c1.69,0,3.27,0.25,4.72,0.73c1.45,0.49,2.69,1.21,3.73,2.15
		c1.04,0.94,1.84,2.11,2.43,3.5c0.58,1.39,0.88,2.99,0.88,4.8v17.23c0,0.42-0.15,0.77-0.45,1.07c-0.3,0.3-0.66,0.45-1.07,0.45h-2.09
		c-0.42,0-0.77-0.15-1.07-0.45c-0.3-0.3-0.45-0.66-0.45-1.07v-2.32c-0.34,0.72-0.87,1.35-1.58,1.89c-0.72,0.55-1.54,1.01-2.46,1.38
		c-0.92,0.38-1.88,0.66-2.88,0.85s-1.93,0.28-2.79,0.28c-1.47,0-2.82-0.21-4.04-0.62s-2.26-0.97-3.11-1.67
		c-0.85-0.7-1.51-1.53-1.98-2.51C552.66,261.04,552.42,259.99,552.42,258.86z M562.82,261.96c1.36,0,2.6-0.21,3.73-0.62
		c1.13-0.41,2.1-0.99,2.91-1.72c0.81-0.73,1.43-1.61,1.86-2.63s0.65-2.15,0.65-3.39v-1.41l-6.66,1.07
		c-2.37,0.38-4.26,0.98-5.65,1.81c-1.39,0.83-2.09,1.9-2.09,3.22c0,0.42,0.09,0.83,0.28,1.24c0.19,0.42,0.49,0.81,0.9,1.19
		c0.41,0.38,0.95,0.68,1.61,0.9C561.02,261.85,561.84,261.96,562.82,261.96z"/>
	<path class="st0" d="M599.46,236.89c0.41,0,0.77,0.15,1.07,0.45c0.3,0.3,0.45,0.66,0.45,1.07v1.81c0,0.42-0.15,0.77-0.45,1.07
		c-0.3,0.3-0.66,0.45-1.07,0.45h-3.28c-4.33,0-6.5,2.17-6.5,6.5v16.49c0,0.42-0.15,0.77-0.45,1.07c-0.3,0.3-0.66,0.45-1.07,0.45
		h-2.09c-0.42,0-0.77-0.15-1.07-0.45c-0.3-0.3-0.45-0.66-0.45-1.07v-26.32c0-0.41,0.15-0.77,0.45-1.07c0.3-0.3,0.66-0.45,1.07-0.45
		h2.09c0.41,0,0.77,0.15,1.07,0.45c0.3,0.3,0.45,0.66,0.45,1.07v1.75c0.75-1.13,1.66-1.96,2.71-2.49c1.05-0.53,2.43-0.79,4.12-0.79
		H599.46z"/>
	<path class="st0" d="M603.82,248.75c0.15-1.73,0.56-3.35,1.24-4.86s1.56-2.82,2.66-3.95c1.09-1.13,2.4-2.01,3.92-2.65
		c1.53-0.64,3.23-0.96,5.11-0.96c2.03,0,3.85,0.33,5.45,0.99c1.6,0.66,2.96,1.61,4.09,2.85c1.13,1.24,2,2.75,2.6,4.52
		c0.6,1.77,0.9,3.75,0.9,5.93v1.53c0,0.42-0.15,0.77-0.45,1.07c-0.3,0.3-0.66,0.45-1.07,0.45h-19.43V254
		c0.08,2.56,0.86,4.53,2.34,5.9c1.49,1.38,3.34,2.06,5.56,2.06c2.07,0,3.62-0.29,4.66-0.88c1.04-0.58,1.87-1.23,2.51-1.95
		c0.3-0.3,0.56-0.51,0.79-0.62c0.23-0.11,0.57-0.17,1.02-0.17h1.7c0.41,0,0.79,0.15,1.13,0.45s0.47,0.66,0.4,1.07
		c-0.11,0.68-0.43,1.42-0.96,2.23c-0.53,0.81-1.29,1.56-2.29,2.26c-1,0.7-2.24,1.28-3.73,1.75c-1.49,0.47-3.23,0.71-5.22,0.71
		c-1.88,0-3.58-0.33-5.08-0.99s-2.82-1.56-3.92-2.71c-1.11-1.15-2.01-2.5-2.68-4.07s-1.09-3.27-1.24-5.11
		C603.63,252.21,603.63,250.48,603.82,248.75z M608.85,248.92h15.87v-0.17c0-2.3-0.72-4.13-2.17-5.51
		c-1.45-1.37-3.38-2.06-5.79-2.06c-1.09,0-2.11,0.18-3.05,0.54c-0.94,0.36-1.77,0.87-2.49,1.53c-0.71,0.66-1.28,1.46-1.69,2.4
		s-0.64,1.98-0.68,3.11V248.92z"/>
</g>
</svg>
